IKResults
version=1
nRows=7
nColumns=67
inDegrees=yes

Units are S.I. units (second, meters, Newtons, ...)
Angles are in degrees.

endheader
time	pelvis_tilt	pelvis_list	pelvis_rotation	pelvis_tx	pelvis_ty	pelvis_tz	hip_flexion_r	hip_adduction_r	hip_rotation_r	knee_angle_r	knee_rot_r	knee_adduc_r	ankle_angle_r	ankle_rot_r	ankle_add_r	subtalar_angle_r	mtp_angle_r	mtp_rot_r	mtp_add_r	hip_flexion_l	hip_adduction_l	hip_rotation_l	knee_angle_l	knee_rot_l	knee_adduc_l	ankle_angle_l	ankle_rot_l	ankle_add_l	subtalar_angle_l	mtp_angle_l	mtp_rot_l	mtp_add_l	lumbar_extension	lumbar_bending	lumbar_rotation	neck_flexion	neck_lateral_bending	neck_rotation	arm_flex_r	arm_add_r	arm_rot_r	elbow_flex_r	elbow_rot_r	elbow_add_r	pro_sup_r	wrist_flex_r	wrist_adduc_r	wrist_rot_r	wrist_dev_r	hand_finger_flex_r	hand_finger_adduc_r	hand_finger_rot_r	arm_flex_l	arm_add_l	arm_rot_l	elbow_flex_l	elbow_rot_l	elbow_add_l	pro_sup_l	wrist_flex_l	wrist_adduc_l	wrist_rot_l	wrist_dev_l	hand_finger_flex_l	hand_finger_adduc_l	hand_finger_rot_l
      1.68500000	     17.53485371	      8.24679023	     -3.11495137	      0.99914384	      0.76376980	      0.58243780	      7.71377644	     -9.69348827	      6.07521703	    -58.78747717	     -5.00000000	      5.00000000	      1.42308963	     -4.82939444	      3.61381171	     -6.70348182	     23.02856784	     -2.00000000	      2.00000000	    -15.08455410	     13.95558123	      1.08434028	    -12.61318369	      5.00000000	      3.17726354	      8.77946554	     -1.57292198	      3.80303747	      1.93294720	     20.83067595	      0.10126335	      2.00000000	    -30.81768952	    -12.53688957	     -6.80533620	      0.00000000	      0.00000000	      0.00000000	      0.00000000	      0.00000000	      0.00000000	      0.00000000	      0.00000000	      0.00000000	     -0.00042092	      0.00000000	      0.00000000	      0.00000000	      0.00000000	      0.00000000	      0.00000000	      0.00000000	      0.00000000	      0.00000000	      0.00000000	      0.00000000	      0.00000000	      0.00000000	      0.00000000	      0.00000000	      0.00000000	      0.00000000	      0.00000000	      0.00000000	      0.00000000	      0.00000000
      1.69000000	     17.46161677	      8.16186186	     -2.94487126	      1.00527279	      0.76379796	      0.58225584	      8.42796804	     -9.57339197	      5.89868844	    -57.81900908	     -5.00000000	      5.00000000	      1.52739554	     -4.82420942	      3.68320102	     -6.66779308	     23.03058338	     -2.00000000	      2.00000000	    -15.96513811	     13.80301672	      1.19784368	    -11.87250278	      5.00000000	      3.17073378	      9.04522830	     -1.74015937	      3.87745713	      1.99821076	     20.81426725	      0.09005449	      2.00000000	    -30.73417163	    -12.34350183	     -7.27733793	      0.00000000	      0.00000000	      0.00000000	      0.00000000	      0.00000000	      0.00000000	      0.00000000	      0.00000000	      0.00000000	     -0.00042092	      0.00000000	      0.00000000	      0.00000000	      0.00000000	      0.00000000	      0.00000000	      0.00000000	      0.00000000	      0.00000000	      0.00000000	      0.00000000	      0.00000000	      0.00000000	      0.00000000	      0.00000000	      0.00000000	      0.00000000	      0.00000000	      0.00000000	      0.00000000	      0.00000000
      1.69500000	     17.43579826	      8.11094116	     -2.67884575	      1.01110956	      0.76380933	      0.58197211	      9.03884150	     -9.49307940	      5.67286555	    -56.73303802	     -5.00000000	      5.00000000	      1.67353604	     -4.85723178	      3.77326413	     -6.64653547	     23.03405115	     -2.00000000	      2.00000000	    -16.75778567	     13.65200926	      1.29029753	    -11.34710137	      5.00000000	      3.15868085	      9.26203839	     -1.96792308	      3.99147805	      2.09083773	     20.79632974	      0.07737783	      2.00000000	    -30.85783139	    -12.13953892	     -7.70083222	      0.00000000	      0.00000000	      0.00000000	      0.00000000	      0.00000000	      0.00000000	      0.00000000	      0.00000000	      0.00000000	     -0.00042092	      0.00000000	      0.00000000	      0.00000000	      0.00000000	      0.00000000	      0.00000000	      0.00000000	      0.00000000	      0.00000000	      0.00000000	      0.00000000	      0.00000000	      0.00000000	      0.00000000	      0.00000000	      0.00000000	      0.00000000	      0.00000000	      0.00000000	      0.00000000	      0.00000000
      1.70000000	     17.58948589	      8.01603638	     -2.25529733	      1.01681138	      0.76384144	      0.58137279	      9.38475992	     -9.44451577	      5.22019554	    -55.62863473	     -5.00000000	      5.00000000	      1.91587052	     -5.00000000	      3.95746778	     -6.63845279	     23.04318470	     -2.00000000	      2.00000000	    -17.77790481	     13.38819174	      1.41077771	    -10.79114531	      5.00000000	      3.11638822	      9.54959475	     -2.38875859	      4.28736252	      2.25283775	     20.75899264	      0.05605304	      2.00000000	    -31.25057470	    -11.66456913	     -8.28096716	      0.00000000	      0.00000000	      0.00000000	      0.00000000	      0.00000000	      0.00000000	      0.00000000	      0.00000000	      0.00000000	     -0.00042092	      0.00000000	      0.00000000	      0.00000000	      0.00000000	      0.00000000	      0.00000000	      0.00000000	      0.00000000	      0.00000000	      0.00000000	      0.00000000	      0.00000000	      0.00000000	      0.00000000	      0.00000000	      0.00000000	      0.00000000	      0.00000000	      0.00000000	      0.00000000	      0.00000000
      1.70500000	     17.94093465	      7.89533005	     -1.87675028	      1.02254980	      0.76403748	      0.58122260	      9.42269720	     -9.32927710	      4.78800148	    -54.34041114	     -5.00000000	      5.00000000	      2.14244469	     -5.00000000	      4.23065241	     -6.65239674	     23.05718422	     -2.00000000	      2.00000000	    -18.99047055	     13.07526754	      1.54890149	    -10.26468535	      5.00000000	      3.08500579	      9.90483228	     -2.79516783	      4.80827246	      2.37973945	     20.69687244	      0.03917270	      2.00000000	    -31.88818170	    -11.41887418	     -8.78712214	      0.00000000	      0.00000000	      0.00000000	      0.00000000	      0.00000000	      0.00000000	      0.00000000	      0.00000000	      0.00000000	     -0.00042092	      0.00000000	      0.00000000	      0.00000000	      0.00000000	      0.00000000	      0.00000000	      0.00000000	      0.00000000	      0.00000000	      0.00000000	      0.00000000	      0.00000000	      0.00000000	      0.00000000	      0.00000000	      0.00000000	      0.00000000	      0.00000000	      0.00000000	      0.00000000	      0.00000000
      1.71000000	     17.90659590	      8.00258358	     -1.78521760	      1.02804294	      0.76364110	      0.58111888	     10.04170786	     -9.39862053	      4.87137530	    -53.08472908	     -5.00000000	      5.00000000	      2.22235391	     -5.00000000	      4.27400779	     -6.67942580	     23.05743087	     -2.00000000	      2.00000000	    -19.52763672	     13.10297816	      1.59210680	    -10.11480781	      5.00000000	      3.01202537	     10.02965987	     -2.84835585	      4.86058714	      2.39350639	     20.69024104	      0.03959392	      2.00000000	    -32.05062212	    -11.42971782	     -8.88328320	      0.00000000	      0.00000000	      0.00000000	      0.00000000	      0.00000000	      0.00000000	      0.00000000	      0.00000000	      0.00000000	     -0.00042092	      0.00000000	      0.00000000	      0.00000000	      0.00000000	      0.00000000	      0.00000000	      0.00000000	      0.00000000	      0.00000000	      0.00000000	      0.00000000	      0.00000000	      0.00000000	      0.00000000	      0.00000000	      0.00000000	      0.00000000	      0.00000000	      0.00000000	      0.00000000	      0.00000000
      1.71500000	     17.86344270	      8.04012059	     -1.80380788	      1.03315253	      0.76296858	      0.58100299	     10.86664782	     -9.46077465	      4.84532877	    -52.08147101	     -5.00000000	      4.99979886	      2.30239951	     -5.00000000	      4.30032386	     -6.70369808	     23.05723041	     -2.00000000	      2.00000000	    -19.99784822	     13.12553289	      1.64253573	    -10.00121073	      4.96866541	      2.95165240	     10.11956034	     -2.89759270	      4.86689941	      2.41045615	     20.68960286	      0.03997165	      2.00000000	    -32.36378457	    -11.37531023	     -8.95666224	      0.00000000	      0.00000000	      0.00000000	      0.00000000	      0.00000000	      0.00000000	      0.00000000	      0.00000000	      0.00000000	     -0.00042092	      0.00000000	      0.00000000	      0.00000000	      0.00000000	      0.00000000	      0.00000000	      0.00000000	      0.00000000	      0.00000000	      0.00000000	      0.00000000	      0.00000000	      0.00000000	      0.00000000	      0.00000000	      0.00000000	      0.00000000	      0.00000000	      0.00000000	      0.00000000	      0.00000000
